# xmcd
#
# Track frame offsets:
#	150
#	2212
#	11576
#	20123
#	34047
#	36459
#	54114
#	56363
#	66741
#	76713
#	87212
#	90516
#	103022
#	119223
#	127041
#	139896
#	152148
#	159363
#	166862
#	177131
#
# Disc length: 2503 seconds
#
# Revision: 0
# Processed by: cddbd v1.5.1PL2 Copyright (c) Steve Scherf et al.
# Submitted via: EasyCDDAExtractor 9.0.2.1
#
DISCID=0509c514
DTITLE=Various Artist - Live im Beatclub (80. Sendung)
DYEAR=1972
DGENRE=Country
TTITLE0=Uschi Nerke - Intro
TTITLE1=Carl Perkins - Blue Suede Shoes
TTITLE2=Carl Perkins - Me and Jesus
TTITLE3=Johnny Cash - A Boy named Sue
TTITLE4=Johnny Cash - Begrüßung des Publikums
TTITLE5=Johnny Cash - Sunday Morning coming down
TTITLE6=Johnny Cash - Vorstellung der Band
TTITLE7=Johnny Cash - Tennesee Flat Top Box
TTITLE8=Johnny Cash - I still miss somenone
TTITLE9=Johnny Cash - Me and Bobby McGee
TTITLE10=Johnny Cash - Ankündigung Anita Carter
TTITLE11=Johnny Cash - Loving him was easier
TTITLE12=Johnny Cash - Rock Island Line
TTITLE13=Johnny Cash - Folsom Prisom Blues
TTITLE14=Johnny Cash - I walk the Line
TTITLE15=June Carter and Johnny Cash - Jackson
TTITLE16=June Carter and Johnny Cash - If I were a Carpenter
TTITLE17=June Carter and Johnny Cash - Help me make it through the Night
TTITLE18=June Carter and Johnny Cash - If I had a Hammer
TTITLE19=June Carter and Johnny Cash - A Thing called Love
EXTD=
EXTT0=
EXTT1=
EXTT2=
EXTT3=
EXTT4=
EXTT5=
EXTT6=
EXTT7=
EXTT8=
EXTT9=
EXTT10=
EXTT11=
EXTT12=
EXTT13=
EXTT14=
EXTT15=
EXTT16=
EXTT17=
EXTT18=
EXTT19=
PLAYORDER=
